# xmcd
#
# Track frame offsets:
#	182
#	17942
#	34742
#	52077
#	64080
#	79542
#	92885
#	109452
#	126660
#	143935
#
# Disc length: 2109 seconds
#
# Revision: 0
# Processed by: cddbd v1.5.2PL0 Copyright (c) Steve Scherf et al.
# Submitted via: EasyCDDAExtractor 15.3.0.1
#
DISCID=94083b0a
DTITLE=Daniela Romo
DYEAR=1983
DGENRE=Latin
TTITLE0=Mentiras
TTITLE1=La Ocasion Para Amarnos
TTITLE2=Te Amo
TTITLE3=Celos
TTITLE4=El Fin De Un Amor
TTITLE5=Pobre Secretaria
TTITLE6=Ayudame
TTITLE7=Ven A Mi Fiesta
TTITLE8=No, No Puedo Ya Dejarte
TTITLE9=Corazon
EXTD=
EXTT0=
EXTT1=
EXTT2=
EXTT3=
EXTT4=
EXTT5=
EXTT6=
EXTT7=
EXTT8=
EXTT9=
PLAYORDER=
